<svg xmlns="http://www.w3.org/2000/svg" xmlns:xlink="http://www.w3.org/1999/xlink" width="1359.375" height="847.917" contentStyleType="text/css" data-diagram-type="ACTIVITY" style="width:1359px;height:847px" preserveAspectRatio="none" version="1.1" viewBox="0 0 1359 847" zoomAndPan="magnify"><defs><linearGradient id="g3iucgw9lai2y0" x1="50%" x2="50%" y1="0%" y2="100%"><stop offset="0%" stop-color="#33B2E2"/><stop offset="100%" stop-color="#009FDB"/></linearGradient><linearGradient id="g3iucgw9lai2y1" x1="50%" x2="50%" y1="0%" y2="100%"><stop offset="0%" stop-color="#F5F5F5"/><stop offset="100%" stop-color="#C2C2C2"/></linearGradient></defs><g><ellipse cx="923.816" cy="20.833" fill="#0568AE" rx="10.417" ry="10.417" style="stroke:#007faf;stroke-width:1.0417"/><rect style="stroke:#009fdb;stroke-width:1.0417" width="300.065" height="87.37" x="773.783" y="52.083" fill="url(#g3iucgw9lai2y0)" rx="10.417" ry="10.417"/><text x="874.19" y="82.137" fill="#FFF" font-family="Verdana" font-size="16.667" lengthAdjust="spacing" textLength="99.251">Initial state:</text><text x="788.367" y="101.538" fill="#FFF" font-family="Verdana" font-size="16.667" lengthAdjust="spacing" textLength="270.898">current installed module version</text><text x="877.718" y="120.939" fill="#FFF" font-family="Verdana" font-size="16.667" lengthAdjust="spacing" textLength="92.196">(Deployed)</text><polygon fill="url(#g3iucgw9lai2y1)" points="785.27 160.286 1062.362 160.286 1074.862 188.021 1062.362 215.755 785.27 215.755 772.77 188.021 785.27 160.286" style="stroke:#c2c2c2;stroke-width:1.0417"/><text x="793.604" y="184.09" fill="#5A5A5A" font-family="Verdana" font-size="16.667" lengthAdjust="spacing" textLength="260.425">Is there a release in the cluster</text><text x="824.524" y="203.491" fill="#5A5A5A" font-family="Verdana" font-size="16.667" lengthAdjust="spacing" textLength="198.584">with &quot;update.versions&quot;?</text><text x="735.319" y="175.757" fill="#5A5A5A" font-family="Verdana" font-size="16.667" font-style="italic" lengthAdjust="spacing" textLength="29.118">Yes</text><text x="1083.195" y="175.757" fill="#5A5A5A" font-family="Verdana" font-size="16.667" font-style="italic" lengthAdjust="spacing" textLength="22.664">No</text><polygon fill="url(#g3iucgw9lai2y1)" points="506.69 226.172 753.402 226.172 765.902 253.906 753.402 281.641 506.69 281.641 494.19 253.906 506.69 226.172" style="stroke:#c2c2c2;stroke-width:1.0417"/><text x="515.466" y="249.976" fill="#5A5A5A" font-family="Verdana" font-size="16.667" lengthAdjust="spacing" textLength="229.159">Does one of the &quot;to&quot; values</text><text x="515.023" y="269.377" fill="#5A5A5A" font-family="Verdana" font-size="16.667" lengthAdjust="spacing" textLength="230.046">match this release version?</text><text x="456.738" y="241.642" fill="#5A5A5A" font-family="Verdana" font-size="16.667" font-style="italic" lengthAdjust="spacing" textLength="29.118">Yes</text><text x="774.235" y="241.642" fill="#5A5A5A" font-family="Verdana" font-size="16.667" font-style="italic" lengthAdjust="spacing" textLength="22.664">No</text><rect style="stroke:#009fdb;stroke-width:1.0417" width="390.845" height="67.969" x="139.84" y="292.057" fill="url(#g3iucgw9lai2y0)" rx="10.417" ry="10.417"/><text x="180.164" y="322.111" fill="#FFF" font-family="Verdana" font-size="16.667" lengthAdjust="spacing" textLength="310.197">If there are multiple rules/releases —</text><text x="154.423" y="341.512" fill="#FFF" font-family="Verdana" font-size="16.667" lengthAdjust="spacing" textLength="361.678">DKP selects the option with the largest &quot;to&quot;</text><polygon fill="url(#g3iucgw9lai2y1)" points="188.847 380.859 481.677 380.859 494.177 408.594 481.677 436.328 188.847 436.328 176.347 408.594 188.847 380.859" style="stroke:#c2c2c2;stroke-width:1.0417"/><text x="197.18" y="404.663" fill="#5A5A5A" font-family="Verdana" font-size="16.667" lengthAdjust="spacing" textLength="276.164">Is the current version (Deployed)</text><text x="197.481" y="424.064" fill="#5A5A5A" font-family="Verdana" font-size="16.667" lengthAdjust="spacing" textLength="275.562">below the corresponding &quot;from&quot;?</text><text x="138.896" y="396.33" fill="#5A5A5A" font-family="Verdana" font-size="16.667" font-style="italic" lengthAdjust="spacing" textLength="29.118">Yes</text><text x="502.511" y="396.33" fill="#5A5A5A" font-family="Verdana" font-size="16.667" font-style="italic" lengthAdjust="spacing" textLength="22.664">No</text><rect style="stroke:#009fdb;stroke-width:1.0417" width="261.507" height="67.969" x="11.458" y="446.745" fill="url(#g3iucgw9lai2y0)" rx="10.417" ry="10.417"/><text x="26.042" y="476.798" fill="#FFF" font-family="Verdana" font-size="16.667" lengthAdjust="spacing" textLength="232.34">Standard sequential update</text><text x="87.732" y="496.2" fill="#FFF" font-family="Verdana" font-size="16.667" lengthAdjust="spacing" textLength="108.96">(no skipping)</text><ellipse cx="142.212" cy="548.657" fill="none" rx="11.458" ry="11.458" style="stroke:#007faf;stroke-width:1.0417"/><ellipse cx="142.212" cy="548.657" fill="none" rx="6.25" ry="6.25" style="stroke:#007faf;stroke-width:1.0417"/><rect style="stroke:#009fdb;stroke-width:1.0417" width="469.027" height="67.969" x="293.799" y="446.745" fill="url(#g3iucgw9lai2y0)" rx="10.417" ry="10.417"/><text x="308.382" y="476.798" fill="#FFF" font-family="Verdana" font-size="16.667" lengthAdjust="spacing" textLength="439.86">DKP selects the target — the latest available version</text><text x="484.355" y="496.2" fill="#FFF" font-family="Verdana" font-size="16.667" lengthAdjust="spacing" textLength="87.915">within &quot;to&quot;</text><rect style="stroke:#009fdb;stroke-width:1.0417" width="363.875" height="67.969" x="346.375" y="610.051" fill="url(#g3iucgw9lai2y0)" rx="10.417" ry="10.417"/><text x="384.44" y="640.104" fill="#FFF" font-family="Verdana" font-size="16.667" lengthAdjust="spacing" textLength="287.744">Waiting for approval — annotation</text><text x="360.958" y="659.505" fill="#FFF" font-family="Verdana" font-size="16.667" lengthAdjust="spacing" textLength="334.709">modules.deckhouse.io/approved=&quot;true&quot;</text><polygon fill="url(#g3iucgw9lai2y1)" points="431.612 537.199 625.012 537.199 637.512 555.233 625.012 573.267 431.612 573.267 419.112 555.233 431.612 537.199" style="stroke:#c2c2c2;stroke-width:1.0417"/><text x="540.812" y="597.07" fill="#5A5A5A" font-family="Verdana" font-size="16.667" font-style="italic" lengthAdjust="spacing" textLength="29.118">Yes</text><text x="439.945" y="561.003" fill="#5A5A5A" font-family="Verdana" font-size="16.667" lengthAdjust="spacing" textLength="176.733">Is approval required?</text><text x="645.846" y="542.969" fill="#5A5A5A" font-family="Verdana" font-size="16.667" font-style="italic" lengthAdjust="spacing" textLength="22.664">No</text><polygon fill="url(#g3iucgw9lai2y1)" points="528.312 698.852 540.812 711.352 528.312 723.852 515.812 711.352 528.312 698.852" style="stroke:#c2c2c2;stroke-width:1.0417"/><rect style="stroke:#009fdb;stroke-width:1.0417" width="329.948" height="48.568" x="363.338" y="744.686" fill="url(#g3iucgw9lai2y0)" rx="10.417" ry="10.417"/><text x="377.921" y="774.74" fill="#FFF" font-family="Verdana" font-size="16.667" lengthAdjust="spacing" textLength="300.781">Target release deployed (Deployed)</text><ellipse cx="528.312" cy="825.545" fill="none" rx="11.458" ry="11.458" style="stroke:#007faf;stroke-width:1.0417"/><ellipse cx="528.312" cy="825.545" fill="none" rx="6.25" ry="6.25" style="stroke:#007faf;stroke-width:1.0417"/><rect style="stroke:#009fdb;stroke-width:1.0417" width="261.507" height="67.969" x="794.076" y="292.057" fill="url(#g3iucgw9lai2y0)" rx="10.417" ry="10.417"/><text x="808.659" y="322.111" fill="#FFF" font-family="Verdana" font-size="16.667" lengthAdjust="spacing" textLength="232.34">Standard sequential update</text><text x="870.349" y="341.512" fill="#FFF" font-family="Verdana" font-size="16.667" lengthAdjust="spacing" textLength="108.96">(no skipping)</text><ellipse cx="924.829" cy="392.318" fill="none" rx="11.458" ry="11.458" style="stroke:#007faf;stroke-width:1.0417"/><ellipse cx="924.829" cy="392.318" fill="none" rx="6.25" ry="6.25" style="stroke:#007faf;stroke-width:1.0417"/><rect style="stroke:#009fdb;stroke-width:1.0417" width="261.507" height="67.969" x="1086.833" y="226.172" fill="url(#g3iucgw9lai2y0)" rx="10.417" ry="10.417"/><text x="1101.416" y="256.226" fill="#FFF" font-family="Verdana" font-size="16.667" lengthAdjust="spacing" textLength="232.34">Standard sequential update</text><text x="1163.106" y="275.627" fill="#FFF" font-family="Verdana" font-size="16.667" lengthAdjust="spacing" textLength="108.96">(no skipping)</text><ellipse cx="1217.586" cy="342.057" fill="none" rx="11.458" ry="11.458" style="stroke:#007faf;stroke-width:1.0417"/><ellipse cx="1217.586" cy="342.057" fill="none" rx="6.25" ry="6.25" style="stroke:#007faf;stroke-width:1.0417"/><line style="stroke:#009fdb;stroke-width:3.125" x1="923.816" x2="923.816" y1="31.25" y2="52.083"/><polygon fill="#009FDB" points="919.649 41.667 923.816 52.083 927.983 41.667 923.816 45.833" style="stroke:#009fdb;stroke-width:1.0417"/><line style="stroke:#009fdb;stroke-width:3.125" x1="142.212" x2="142.212" y1="514.713" y2="537.199"/><polygon fill="#009FDB" points="138.045 526.782 142.212 537.199 146.379 526.782 142.212 530.949" style="stroke:#009fdb;stroke-width:1.0417"/><line style="stroke:#009fdb;stroke-width:3.125" x1="528.312" x2="528.312" y1="573.267" y2="610.051"/><polygon fill="#009FDB" points="524.145 599.634 528.312 610.051 532.479 599.634 528.312 603.801" style="stroke:#009fdb;stroke-width:1.0417"/><line style="stroke:#009fdb;stroke-width:3.125" x1="637.512" x2="720.667" y1="555.233" y2="555.233"/><polygon fill="#009FDB" points="716.5 639.185 720.667 649.601 724.833 639.185 720.667 643.351" style="stroke:#009fdb;stroke-width:3.125"/><line style="stroke:#009fdb;stroke-width:3.125" x1="720.667" x2="720.667" y1="555.233" y2="711.352"/><line style="stroke:#009fdb;stroke-width:3.125" x1="720.667" x2="540.812" y1="711.352" y2="711.352"/><polygon fill="#009FDB" points="551.229 707.186 540.812 711.352 551.229 715.519 547.062 711.352" style="stroke:#009fdb;stroke-width:1.0417"/><line style="stroke:#009fdb;stroke-width:3.125" x1="528.312" x2="528.312" y1="678.019" y2="698.852"/><polygon fill="#009FDB" points="524.145 688.436 528.312 698.852 532.479 688.436 528.312 692.602" style="stroke:#009fdb;stroke-width:1.0417"/><line style="stroke:#009fdb;stroke-width:3.125" x1="528.312" x2="528.312" y1="514.713" y2="537.199"/><polygon fill="#009FDB" points="524.145 526.782 528.312 537.199 532.479 526.782 528.312 530.949" style="stroke:#009fdb;stroke-width:1.0417"/><line style="stroke:#009fdb;stroke-width:3.125" x1="528.312" x2="528.312" y1="723.852" y2="744.686"/><polygon fill="#009FDB" points="524.145 734.269 528.312 744.686 532.479 734.269 528.312 738.436" style="stroke:#009fdb;stroke-width:1.0417"/><line style="stroke:#009fdb;stroke-width:3.125" x1="528.312" x2="528.312" y1="793.254" y2="814.087"/><polygon fill="#009FDB" points="524.145 803.67 528.312 814.087 532.479 803.67 528.312 807.837" style="stroke:#009fdb;stroke-width:1.0417"/><line style="stroke:#009fdb;stroke-width:3.125" x1="176.347" x2="142.212" y1="408.594" y2="408.594"/><line style="stroke:#009fdb;stroke-width:3.125" x1="142.212" x2="142.212" y1="408.594" y2="446.745"/><polygon fill="#009FDB" points="138.045 436.328 142.212 446.745 146.379 436.328 142.212 440.495" style="stroke:#009fdb;stroke-width:1.0417"/><line style="stroke:#009fdb;stroke-width:3.125" x1="494.177" x2="528.312" y1="408.594" y2="408.594"/><line style="stroke:#009fdb;stroke-width:3.125" x1="528.312" x2="528.312" y1="408.594" y2="446.745"/><polygon fill="#009FDB" points="524.145 436.328 528.312 446.745 532.479 436.328 528.312 440.495" style="stroke:#009fdb;stroke-width:1.0417"/><line style="stroke:#009fdb;stroke-width:3.125" x1="335.262" x2="335.262" y1="360.026" y2="380.859"/><polygon fill="#009FDB" points="331.095 370.443 335.262 380.859 339.429 370.443 335.262 374.609" style="stroke:#009fdb;stroke-width:1.0417"/><line style="stroke:#009fdb;stroke-width:3.125" x1="924.829" x2="924.829" y1="360.026" y2="380.859"/><polygon fill="#009FDB" points="920.662 370.443 924.829 380.859 928.996 370.443 924.829 374.609" style="stroke:#009fdb;stroke-width:1.0417"/><line style="stroke:#009fdb;stroke-width:3.125" x1="494.19" x2="335.262" y1="253.906" y2="253.906"/><line style="stroke:#009fdb;stroke-width:3.125" x1="335.262" x2="335.262" y1="253.906" y2="292.057"/><polygon fill="#009FDB" points="331.095 281.641 335.262 292.057 339.429 281.641 335.262 285.807" style="stroke:#009fdb;stroke-width:1.0417"/><line style="stroke:#009fdb;stroke-width:3.125" x1="765.902" x2="924.829" y1="253.906" y2="253.906"/><line style="stroke:#009fdb;stroke-width:3.125" x1="924.829" x2="924.829" y1="253.906" y2="292.057"/><polygon fill="#009FDB" points="920.662 281.641 924.829 292.057 928.996 281.641 924.829 285.807" style="stroke:#009fdb;stroke-width:1.0417"/><line style="stroke:#009fdb;stroke-width:3.125" x1="1217.586" x2="1217.586" y1="294.141" y2="330.599"/><polygon fill="#009FDB" points="1213.42 320.182 1217.586 330.599 1221.753 320.182 1217.586 324.349" style="stroke:#009fdb;stroke-width:1.0417"/><line style="stroke:#009fdb;stroke-width:3.125" x1="772.77" x2="630.046" y1="188.021" y2="188.021"/><line style="stroke:#009fdb;stroke-width:3.125" x1="630.046" x2="630.046" y1="188.021" y2="226.172"/><polygon fill="#009FDB" points="625.879 215.755 630.046 226.172 634.212 215.755 630.046 219.922" style="stroke:#009fdb;stroke-width:1.0417"/><line style="stroke:#009fdb;stroke-width:3.125" x1="1074.862" x2="1217.586" y1="188.021" y2="188.021"/><line style="stroke:#009fdb;stroke-width:3.125" x1="1217.586" x2="1217.586" y1="188.021" y2="226.172"/><polygon fill="#009FDB" points="1213.42 215.755 1217.586 226.172 1221.753 215.755 1217.586 219.922" style="stroke:#009fdb;stroke-width:1.0417"/><line style="stroke:#009fdb;stroke-width:3.125" x1="923.816" x2="923.816" y1="139.453" y2="160.286"/><polygon fill="#009FDB" points="919.649 149.87 923.816 160.286 927.983 149.87 923.816 154.036" style="stroke:#009fdb;stroke-width:1.0417"/></g></svg>