<svg xmlns="http://www.w3.org/2000/svg" xmlns:xlink="http://www.w3.org/1999/xlink" width="1278.125" height="483.333" contentStyleType="text/css" preserveAspectRatio="none" version="1.1" viewBox="0 0 1278 483" zoomAndPan="magnify" style="width:1278px;height:483px"><defs><linearGradient id="g1acdac1jfnnjj0" x1="50%" x2="50%" y1="0%" y2="100%"><stop offset="0%" stop-color="#F5F5F5"/><stop offset="100%" stop-color="#C2C2C2"/></linearGradient><linearGradient id="g1acdac1jfnnjj1" x1="50%" x2="50%" y1="0%" y2="100%"><stop offset="0%" stop-color="#33B2E2"/><stop offset="100%" stop-color="#009FDB"/></linearGradient></defs><g><polygon style="stroke:#c2c2c2;stroke-width:1.0416666666666667" fill="url(#g1acdac1jfnnjj0)" points="521.899 10.417 697.699 10.417 710.199 75.5 697.699 140.584 521.899 140.584 509.399 75.5 521.899 10.417"/><text x="540.749" y="59.267" fill="#5A5A5A" font-family="Verdana" font-size="16.667" lengthAdjust="spacing" textLength="138.1">Поддерживается</text><text x="587.874" y="81.967" fill="#5A5A5A" font-family="Verdana" font-size="16.667" lengthAdjust="spacing" textLength="43.85">заказ</text><text x="530.232" y="104.667" fill="#5A5A5A" font-family="Verdana" font-size="16.667" lengthAdjust="spacing" textLength="159.134">балансировщиков?</text><text x="481.099" y="62.283" fill="#5A5A5A" font-family="Verdana" font-size="16.667" font-style="italic" lengthAdjust="spacing" textLength="19.967">Да</text><text x="718.532" y="62.283" fill="#5A5A5A" font-family="Verdana" font-size="16.667" font-style="italic" lengthAdjust="spacing" textLength="34.233">Нет</text><rect width="567.668" height="174.567" x="11.458" y="151" fill="none" rx="10.417" ry="10.417" style="stroke:#009fdb;stroke-width:1.0416666666666667"/><path style="stroke:#009fdb;stroke-width:1.0416666666666667" fill="none" d="M503.3927,151.0002 L503.3927,183.0753 L492.976,193.4919 L11.4583,193.4919"/><text x="22.917" y="178.192" fill="gray" font-family="Verdana" font-size="16.667" lengthAdjust="spacing" textLength="464.851">OpenStack-облако, Yandex, VK, Selectel, AWS, GCP, Azure...</text><line x1="114.717" x2="385.009" y1="211.2" y2="211.2" style="stroke:#009fdb;stroke-width:1.5625"/><rect width="181.517" height="51.867" x="23.958" y="232.034" fill="url(#g1acdac1jfnnjj1)" rx="10.417" ry="10.417" style="stroke:#009fdb;stroke-width:1.0416666666666667"/><text x="38.542" y="264.434" fill="#FFF" font-family="Verdana" font-size="16.667" lengthAdjust="spacing" textLength="34.317">inlet</text><text x="77.192" y="264.434" fill="#FFF" font-family="Verdana" font-size="16.667" font-weight="bold" lengthAdjust="spacing" textLength="113.7">LoadBalancer</text><rect width="338.234" height="51.867" x="215.892" y="232.034" fill="url(#g1acdac1jfnnjj1)" rx="10.417" ry="10.417" style="stroke:#009fdb;stroke-width:1.0416666666666667"/><text x="230.475" y="264.434" fill="#FFF" font-family="Verdana" font-size="16.667" lengthAdjust="spacing" textLength="34.317">inlet</text><text x="269.125" y="264.434" fill="#FFF" font-family="Verdana" font-size="16.667" font-weight="bold" lengthAdjust="spacing" textLength="270.417">LoadBalancerWithProxyProtocol</text><rect width="667.443" height="321.834" x="599.959" y="151" fill="none" rx="10.417" ry="10.417" style="stroke:#009fdb;stroke-width:1.0416666666666667"/><path style="stroke:#009fdb;stroke-width:1.0416666666666667" fill="none" d="M885.1264,151.0002 L885.1264,183.0753 L874.7097,193.4919 L599.9592,193.4919"/><text x="611.418" y="178.192" fill="gray" font-family="Verdana" font-size="16.667" lengthAdjust="spacing" textLength="258.084">Bare metal, облако на vSphere...</text><line x1="723.268" x2="1055.177" y1="211.2" y2="211.2" style="stroke:#009fdb;stroke-width:1.5625"/><rect width="196.617" height="74.567" x="624.959" y="271.4" fill="url(#g1acdac1jfnnjj1)" rx="10.417" ry="10.417" style="stroke:#009fdb;stroke-width:1.0416666666666667"/><text x="639.543" y="303.8" fill="#FFF" font-family="Verdana" font-size="16.667" lengthAdjust="spacing" textLength="167.45">Добавьте несколько</text><text x="655.759" y="326.5" fill="#FFF" font-family="Verdana" font-size="16.667" lengthAdjust="spacing" textLength="135.017">А-записей в DNS</text><rect width="399.451" height="74.567" x="855.451" y="271.4" fill="url(#g1acdac1jfnnjj1)" rx="10.417" ry="10.417" style="stroke:#009fdb;stroke-width:1.0416666666666667"/><text x="893.651" y="303.8" fill="#FFF" font-family="Verdana" font-size="16.667" lengthAdjust="spacing" textLength="323.051">Используйте внешний балансировщик</text><text x="870.035" y="326.5" fill="#FFF" font-family="Verdana" font-size="16.667" lengthAdjust="spacing" textLength="370.284">(Cloudflare, Qrator, MetalLB (для bare metal)...)</text><line x1="723.268" x2="1055.177" y1="366.8" y2="366.8" style="stroke:#009fdb;stroke-width:1.5625"/><line x1="775.997" x2="1025.506" y1="387.634" y2="387.634" style="stroke:#009fdb;stroke-width:1.5625"/><rect width="141.983" height="51.867" x="705.005" y="408.467" fill="url(#g1acdac1jfnnjj1)" rx="10.417" ry="10.417" style="stroke:#009fdb;stroke-width:1.0416666666666667"/><text x="719.589" y="440.867" fill="#FFF" font-family="Verdana" font-size="16.667" lengthAdjust="spacing" textLength="34.317">inlet</text><text x="758.239" y="440.867" fill="#FFF" font-family="Verdana" font-size="16.667" font-weight="bold" lengthAdjust="spacing" textLength="74.167">HostPort</text><rect width="298.7" height="51.867" x="876.155" y="408.467" fill="url(#g1acdac1jfnnjj1)" rx="10.417" ry="10.417" style="stroke:#009fdb;stroke-width:1.0416666666666667"/><text x="890.739" y="440.867" fill="#FFF" font-family="Verdana" font-size="16.667" lengthAdjust="spacing" textLength="34.317">inlet</text><text x="929.389" y="440.867" fill="#FFF" font-family="Verdana" font-size="16.667" font-weight="bold" lengthAdjust="spacing" textLength="230.884">HostPortWithProxyProtocol</text><line x1="114.717" x2="114.717" y1="212.763" y2="232.034" style="stroke:#009fdb;stroke-width:3.125"/><polygon style="stroke:#009fdb;stroke-width:1.0416666666666667" fill="#009FDB" points="110.55 221.617 114.717 232.034 118.883 221.617 114.717 225.784"/><line x1="385.009" x2="385.009" y1="212.763" y2="232.034" style="stroke:#009fdb;stroke-width:3.125"/><polygon style="stroke:#009fdb;stroke-width:1.0416666666666667" fill="#009FDB" points="380.842 221.617 385.009 232.034 389.176 221.617 385.009 225.784"/><line x1="723.268" x2="723.268" y1="212.763" y2="271.4" style="stroke:#009fdb;stroke-width:3.125"/><polygon style="stroke:#009fdb;stroke-width:1.0416666666666667" fill="#009FDB" points="719.101 260.984 723.268 271.4 727.434 260.984 723.268 265.15"/><text x="735.768" y="247.767" fill="#5A5A5A" font-family="Verdana" font-size="16.667" font-style="italic" lengthAdjust="spacing" textLength="86.35">Вариант 1</text><line x1="1055.177" x2="1055.177" y1="212.763" y2="271.4" style="stroke:#009fdb;stroke-width:3.125"/><polygon style="stroke:#009fdb;stroke-width:1.0416666666666667" fill="#009FDB" points="1051.01 260.984 1055.177 271.4 1059.343 260.984 1055.177 265.15"/><text x="1067.677" y="247.767" fill="#5A5A5A" font-family="Verdana" font-size="16.667" font-style="italic" lengthAdjust="spacing" textLength="86.35">Вариант 2</text><line x1="723.268" x2="723.268" y1="345.967" y2="366.8" style="stroke:#009fdb;stroke-width:3.125"/><polygon style="stroke:#009fdb;stroke-width:1.0416666666666667" fill="#009FDB" points="719.101 356.384 723.268 366.8 727.434 356.384 723.268 360.55"/><line x1="1055.177" x2="1055.177" y1="345.967" y2="366.8" style="stroke:#009fdb;stroke-width:3.125"/><polygon style="stroke:#009fdb;stroke-width:1.0416666666666667" fill="#009FDB" points="1051.01 356.384 1055.177 366.8 1059.343 356.384 1055.177 360.55"/><line x1="775.997" x2="775.997" y1="389.196" y2="408.467" style="stroke:#009fdb;stroke-width:3.125"/><polygon style="stroke:#009fdb;stroke-width:1.0416666666666667" fill="#009FDB" points="771.83 398.05 775.997 408.467 780.164 398.05 775.997 402.217"/><line x1="1025.506" x2="1025.506" y1="389.196" y2="408.467" style="stroke:#009fdb;stroke-width:3.125"/><polygon style="stroke:#009fdb;stroke-width:1.0416666666666667" fill="#009FDB" points="1021.339 398.05 1025.506 408.467 1029.672 398.05 1025.506 402.217"/><line x1="939.931" x2="939.931" y1="368.363" y2="387.634" style="stroke:#009fdb;stroke-width:3.125"/><polygon style="stroke:#009fdb;stroke-width:1.0416666666666667" fill="#009FDB" points="935.764 377.217 939.931 387.634 944.097 377.217 939.931 381.384"/><line x1="509.399" x2="279.667" y1="75.5" y2="75.5" style="stroke:#009fdb;stroke-width:3.125"/><line x1="279.667" x2="279.667" y1="75.5" y2="211.2" style="stroke:#009fdb;stroke-width:3.125"/><polygon style="stroke:#009fdb;stroke-width:1.0416666666666667" fill="#009FDB" points="275.5 200.784 279.667 211.2 283.834 200.784 279.667 204.95"/><line x1="710.199" x2="939.931" y1="75.5" y2="75.5" style="stroke:#009fdb;stroke-width:3.125"/><line x1="939.931" x2="939.931" y1="75.5" y2="211.2" style="stroke:#009fdb;stroke-width:3.125"/><polygon style="stroke:#009fdb;stroke-width:1.0416666666666667" fill="#009FDB" points="935.764 200.784 939.931 211.2 944.097 200.784 939.931 204.95"/></g></svg>