<svg xmlns="http://www.w3.org/2000/svg" xmlns:xlink="http://www.w3.org/1999/xlink" width="1305.208" height="461.458" contentStyleType="text/css" preserveAspectRatio="none" version="1.1" viewBox="0 0 1305 461" zoomAndPan="magnify" style="width:1305px;height:461px"><defs><linearGradient id="g1d27ykyzkl7ik0" x1="50%" x2="50%" y1="0%" y2="100%"><stop offset="0%" stop-color="#F5F5F5"/><stop offset="100%" stop-color="#C2C2C2"/></linearGradient><linearGradient id="g1d27ykyzkl7ik1" x1="50%" x2="50%" y1="0%" y2="100%"><stop offset="0%" stop-color="#33B2E2"/><stop offset="100%" stop-color="#009FDB"/></linearGradient></defs><g><polygon style="stroke:#c2c2c2;stroke-width:1.0416666666666667" fill="url(#g1d27ykyzkl7ik0)" points="507.905 10.417 731.689 10.417 744.189 64.15 731.689 117.883 507.905 117.883 495.405 64.15 507.905 10.417"/><text x="566.563" y="59.267" fill="#5A5A5A" font-family="Verdana" font-size="16.667" lengthAdjust="spacing" textLength="106.467">Is ordering of</text><text x="516.238" y="81.967" fill="#5A5A5A" font-family="Verdana" font-size="16.667" lengthAdjust="spacing" textLength="207.117">load balancers supported?</text><text x="463.072" y="50.933" fill="#5A5A5A" font-family="Verdana" font-size="16.667" font-style="italic" lengthAdjust="spacing" textLength="24">Yes</text><text x="752.522" y="50.933" fill="#5A5A5A" font-family="Verdana" font-size="16.667" font-style="italic" lengthAdjust="spacing" textLength="21.167">No</text><rect width="567.668" height="174.567" x="11.458" y="128.3" fill="none" rx="10.417" ry="10.417" style="stroke:#009fdb;stroke-width:1.0416666666666667"/><path style="stroke:#009fdb;stroke-width:1.0416666666666667" fill="none" d="M375.7091,128.3002 L375.7091,160.3752 L365.2924,170.7919 L11.4583,170.7919"/><text x="22.917" y="155.492" fill="gray" font-family="Verdana" font-size="16.667" lengthAdjust="spacing" textLength="337.167">OpenStack-based cloud, AWS, GCP, Azure...</text><line x1="114.717" x2="385.009" y1="188.5" y2="188.5" style="stroke:#009fdb;stroke-width:1.5625"/><rect width="181.517" height="51.867" x="23.958" y="209.334" fill="url(#g1d27ykyzkl7ik1)" rx="10.417" ry="10.417" style="stroke:#009fdb;stroke-width:1.0416666666666667"/><text x="38.542" y="241.734" fill="#FFF" font-family="Verdana" font-size="16.667" lengthAdjust="spacing" textLength="34.317">inlet</text><text x="77.192" y="241.734" fill="#FFF" font-family="Verdana" font-size="16.667" font-weight="bold" lengthAdjust="spacing" textLength="113.7">LoadBalancer</text><rect width="338.234" height="51.867" x="215.892" y="209.334" fill="url(#g1d27ykyzkl7ik1)" rx="10.417" ry="10.417" style="stroke:#009fdb;stroke-width:1.0416666666666667"/><text x="230.475" y="241.734" fill="#FFF" font-family="Verdana" font-size="16.667" lengthAdjust="spacing" textLength="34.317">inlet</text><text x="269.125" y="241.734" fill="#FFF" font-family="Verdana" font-size="16.667" font-weight="bold" lengthAdjust="spacing" textLength="270.417">LoadBalancerWithProxyProtocol</text><rect width="693.909" height="321.834" x="599.959" y="128.3" fill="none" rx="10.417" ry="10.417" style="stroke:#009fdb;stroke-width:1.0416666666666667"/><path style="stroke:#009fdb;stroke-width:1.0416666666666667" fill="none" d="M845.8097,128.3002 L845.8097,160.3752 L835.393,170.7919 L599.9592,170.7919"/><text x="611.418" y="155.492" fill="gray" font-family="Verdana" font-size="16.667" lengthAdjust="spacing" textLength="218.767">Bare metal, vSphere cloud...</text><line x1="748.585" x2="1084.61" y1="188.5" y2="188.5" style="stroke:#009fdb;stroke-width:1.5625"/><rect width="247.25" height="51.867" x="624.959" y="260.05" fill="url(#g1d27ykyzkl7ik1)" rx="10.417" ry="10.417" style="stroke:#009fdb;stroke-width:1.0416666666666667"/><text x="639.543" y="292.45" fill="#FFF" font-family="Verdana" font-size="16.667" lengthAdjust="spacing" textLength="218.084">Add multiple DNS A-records</text><rect width="393.517" height="74.567" x="887.851" y="248.7" fill="url(#g1d27ykyzkl7ik1)" rx="10.417" ry="10.417" style="stroke:#009fdb;stroke-width:1.0416666666666667"/><text x="977.677" y="281.1" fill="#FFF" font-family="Verdana" font-size="16.667" lengthAdjust="spacing" textLength="213.867">Use external Load Balancer</text><text x="902.435" y="303.8" fill="#FFF" font-family="Verdana" font-size="16.667" lengthAdjust="spacing" textLength="364.351">(Cloudflare, Qrator, MetalLB (for bare metal)...)</text><line x1="748.585" x2="1084.61" y1="344.1" y2="344.1" style="stroke:#009fdb;stroke-width:1.5625"/><line x1="795.993" x2="1031.977" y1="364.934" y2="364.934" style="stroke:#009fdb;stroke-width:1.5625"/><rect width="141.983" height="51.867" x="725.001" y="385.767" fill="url(#g1d27ykyzkl7ik1)" rx="10.417" ry="10.417" style="stroke:#009fdb;stroke-width:1.0416666666666667"/><text x="739.585" y="418.167" fill="#FFF" font-family="Verdana" font-size="16.667" lengthAdjust="spacing" textLength="34.317">inlet</text><text x="778.235" y="418.167" fill="#FFF" font-family="Verdana" font-size="16.667" font-weight="bold" lengthAdjust="spacing" textLength="74.167">HostPort</text><rect width="298.7" height="51.867" x="882.626" y="385.767" fill="url(#g1d27ykyzkl7ik1)" rx="10.417" ry="10.417" style="stroke:#009fdb;stroke-width:1.0416666666666667"/><text x="897.21" y="418.167" fill="#FFF" font-family="Verdana" font-size="16.667" lengthAdjust="spacing" textLength="34.317">inlet</text><text x="935.86" y="418.167" fill="#FFF" font-family="Verdana" font-size="16.667" font-weight="bold" lengthAdjust="spacing" textLength="230.884">HostPortWithProxyProtocol</text><line x1="114.717" x2="114.717" y1="190.063" y2="209.334" style="stroke:#009fdb;stroke-width:3.125"/><polygon style="stroke:#009fdb;stroke-width:1.0416666666666667" fill="#009FDB" points="110.55 198.917 114.717 209.334 118.883 198.917 114.717 203.084"/><line x1="385.009" x2="385.009" y1="190.063" y2="209.334" style="stroke:#009fdb;stroke-width:3.125"/><polygon style="stroke:#009fdb;stroke-width:1.0416666666666667" fill="#009FDB" points="380.842 198.917 385.009 209.334 389.176 198.917 385.009 203.084"/><line x1="748.585" x2="748.585" y1="190.063" y2="260.05" style="stroke:#009fdb;stroke-width:3.125"/><polygon style="stroke:#009fdb;stroke-width:1.0416666666666667" fill="#009FDB" points="744.418 249.634 748.585 260.05 752.751 249.634 748.585 253.8"/><text x="761.085" y="230.742" fill="#5A5A5A" font-family="Verdana" font-size="16.667" font-style="italic" lengthAdjust="spacing" textLength="64.05">Option 1</text><line x1="1084.61" x2="1084.61" y1="190.063" y2="248.7" style="stroke:#009fdb;stroke-width:3.125"/><polygon style="stroke:#009fdb;stroke-width:1.0416666666666667" fill="#009FDB" points="1080.443 238.284 1084.61 248.7 1088.777 238.284 1084.61 242.45"/><text x="1097.11" y="225.067" fill="#5A5A5A" font-family="Verdana" font-size="16.667" font-style="italic" lengthAdjust="spacing" textLength="64.05">Option 2</text><line x1="748.585" x2="748.585" y1="311.917" y2="344.1" style="stroke:#009fdb;stroke-width:3.125"/><polygon style="stroke:#009fdb;stroke-width:1.0416666666666667" fill="#009FDB" points="744.418 333.684 748.585 344.1 752.751 333.684 748.585 337.85"/><line x1="1084.61" x2="1084.61" y1="323.267" y2="344.1" style="stroke:#009fdb;stroke-width:3.125"/><polygon style="stroke:#009fdb;stroke-width:1.0416666666666667" fill="#009FDB" points="1080.443 333.684 1084.61 344.1 1088.777 333.684 1084.61 337.85"/><line x1="795.993" x2="795.993" y1="366.496" y2="385.767" style="stroke:#009fdb;stroke-width:3.125"/><polygon style="stroke:#009fdb;stroke-width:1.0416666666666667" fill="#009FDB" points="791.826 375.35 795.993 385.767 800.16 375.35 795.993 379.517"/><line x1="1031.977" x2="1031.977" y1="366.496" y2="385.767" style="stroke:#009fdb;stroke-width:3.125"/><polygon style="stroke:#009fdb;stroke-width:1.0416666666666667" fill="#009FDB" points="1027.81 375.35 1031.977 385.767 1036.143 375.35 1031.977 379.517"/><line x1="946.402" x2="946.402" y1="345.663" y2="364.934" style="stroke:#009fdb;stroke-width:3.125"/><polygon style="stroke:#009fdb;stroke-width:1.0416666666666667" fill="#009FDB" points="942.235 354.517 946.402 364.934 950.568 354.517 946.402 358.684"/><line x1="495.405" x2="279.667" y1="64.15" y2="64.15" style="stroke:#009fdb;stroke-width:3.125"/><line x1="279.667" x2="279.667" y1="64.15" y2="188.5" style="stroke:#009fdb;stroke-width:3.125"/><polygon style="stroke:#009fdb;stroke-width:1.0416666666666667" fill="#009FDB" points="275.5 178.084 279.667 188.5 283.834 178.084 279.667 182.25"/><line x1="744.189" x2="946.402" y1="64.15" y2="64.15" style="stroke:#009fdb;stroke-width:3.125"/><line x1="946.402" x2="946.402" y1="64.15" y2="188.5" style="stroke:#009fdb;stroke-width:3.125"/><polygon style="stroke:#009fdb;stroke-width:1.0416666666666667" fill="#009FDB" points="942.235 178.084 946.402 188.5 950.568 178.084 946.402 182.25"/></g></svg>